{"title":"Notes.For.An.African.Orestes.1970.BDRip.XviD-AEN","uid":7860130,"size":732658080,"categoryP":"video","categoryS":"movies","magnet":"?xt=urn:btih:62fc92fca173b8ea862537153bd65912d38763aa&amp;dn=Notes.For.An.African.Orestes.1970.BDRip.XviD-AEN&amp;tr=udp%3A%2F%2Ftracker.openbittorrent.com%3A80&amp;tr=udp%3A%2F%2Fopen.demonii.com%3A1337&amp;tr=udp%3A%2F%2Ftracker.coppersurfer.tk%3A6969&amp;tr=udp%3A%2F%2Fexodus.desync.com%3A6969","seeders":2,"leechers":0,"uploader":"rpessoa","files":2,"time":1353905872,"description":"The director presents takes and scenes filmed on location in Africa for a film-that-never-was, a black Oresteia.\n\n---------------------------\n\nGeneral\nComplete name : Notes.For.An.African.Orestes.1970.BDRip.XviD-AEN.avi\nFormat : AVI\nFormat/Info : Audio Video Interleave\nFile size : 699 MiB\nDuration : 1h 13mn\nOverall bit rate : 1 334 Kbps\nWriting application : Nandub v1.0rc2\nWriting library : Nandub build 1852/release\n\nVideo\nID : 0\nFormat : MPEG-4 Visual\nFormat profile : Advanced Simple@L5\nFormat settings, BVOP : Yes\nFormat settings, QPel : No\nFormat settings, GMC : No warppoints\nFormat settings, Matrix : Default (H.263)\nMuxing mode : Packed bitstream\nCodec ID : XVID\nCodec ID/Hint : XviD\nDuration : 1h 13mn\nBit rate : 1 236 Kbps\nWidth : 624 pixels\nHeight : 464 pixels\nDisplay aspect ratio : 4:3\nFrame rate : 23.976 fps\nResolution : 8 bits\nColorimetry : 4:2:0\nScan type : Progressive\nBits/(Pixel*Frame) : 0.178\nStream size : 647 MiB (93%)\nWriting library : XviD 1.2.1 (UTC 2008-12-04)\n\nAudio\nID : 1\nFormat : MPEG Audio\nFormat version : Version 1\nFormat profile : Layer 3\nCodec ID : 55\nCodec ID/Hint : MP3\nDuration : 1h 13mn\nBit rate mode : Variable\nBit rate : 85.6 Kbps\nMinimum bit rate : 32.0 Kbps\nChannel(s) : 1 channel\nSampling rate : 48.0 KHz\nStream size : 44.8 MiB (6%)\nAlignment : Aligned on interleaves\nInterleave, duration : 24 ms (0.58 video frame)\nInterleave, preload duration : 206 ms\nWriting library : LAME3.98r\nEncoding settings : -m m -V 4 -q 0 -lowpass 17.5 --vbr-new -b 32\n\nSubs: English","torrent":{"xt":"urn:btih:62fc92fca173b8ea862537153bd65912d38763aa","amp;dn":"Notes.For.An.African.Orestes.1970.BDRip.XviD-AEN","amp;tr":["udp%3A%2F%2Ftracker.openbittorrent.com%3A80","udp%3A%2F%2Fopen.demonii.com%3A1337","udp%3A%2F%2Ftracker.coppersurfer.tk%3A6969","udp%3A%2F%2Fexodus.desync.com%3A6969"],"infoHash":"62fc92fca173b8ea862537153bd65912d38763aa","infoHashBuffer":{"type":"Buffer","data":[98,252,146,252,161,115,184,234,134,37,55,21,59,214,89,18,211,135,99,170]},"announce":[],"urlList":[]}}